<svg xmlns="http://www.w3.org/2000/svg" xmlns:xlink="http://www.w3.org/1999/xlink" version="1.1" style="enable-background:new 0 0 512 512;" xml:space="preserve" width="512" height="512"><rect id="backgroundrect" width="100%" height="100%" x="0" y="0" fill="none" stroke="none"/>
























<g class="currentLayer" style=""><title>Layer 1</title><g id="svg_1" class="" fill="#990000" fill-opacity="1">
	<path style="" d="M158.891,87.419H123.58c-4.875,0-8.828,3.953-8.828,8.828v17.655h52.966V96.247   C167.718,91.372,163.766,87.419,158.891,87.419z" id="svg_2" fill="#990000" fill-opacity="1"/>
	<path style="" d="M388.412,87.419h-35.311c-4.875,0-8.828,3.953-8.828,8.828v17.655h52.966V96.247   C397.239,91.372,393.287,87.419,388.412,87.419z" id="svg_3" fill="#990000" fill-opacity="1"/>
</g><path style="" d="M508.319,349.391L421.413,122.1c-3.921-10.253-13.759-17.025-24.736-17.025h-47.05  c-8.854,0-17.124,4.425-22.035,11.793l-4.552,6.828c-3.274,4.912-8.787,7.862-14.69,7.862H203.65c-5.904,0-11.415-2.951-14.69-7.862  l-4.552-6.828c-4.912-7.368-13.181-11.793-22.035-11.793h-47.05c-10.977,0-20.817,6.772-24.736,17.025L3.681,349.391  c-11.526,30.143,4.991,63.727,35.902,73.001c18.986,5.696,39.558,0.069,53.003-14.496l83.96-90.956h158.908l83.96,90.956  c13.445,14.566,34.017,20.191,53.003,14.496C503.327,413.119,519.845,379.535,508.319,349.391z" id="svg_4" class="" fill="#ffffff" fill-opacity="1"/><g id="svg_5" class="" fill="#ffffff" fill-opacity="1">
	<path style="" d="M375.997,123.696l4.552-6.828c4.484-6.728,11.808-10.821,19.782-11.512   c-1.201-0.167-2.418-0.28-3.655-0.28h-47.05c-8.854,0-17.124,4.425-22.035,11.793l-4.552,6.828   c-3.274,4.912-8.787,7.862-14.69,7.862h52.958C367.21,131.558,372.723,128.607,375.997,123.696z" id="svg_6" fill="#ffffff" fill-opacity="1"/>
	<path style="" d="M56.639,349.391L143.544,122.1c3.478-9.098,11.624-15.428,21.083-16.745   c-0.759-0.066-1.485-0.28-2.253-0.28h-47.05c-10.977,0-20.817,6.772-24.736,17.025L3.681,349.391   c-11.526,30.143,4.991,63.727,35.902,73.001c14.074,4.222,29.005,2.194,41.273-5.056C57.704,404.071,46.67,375.461,56.639,349.391z   " id="svg_7" fill="#ffffff" fill-opacity="1"/>
	<path style="" d="M472.371,407.896L357.328,286.571c-8.334-8.79-19.915-13.768-32.029-13.768H211.857v44.139h123.597   l82.636,89.522c11.875,12.865,29.21,20.074,46.548,17.633c7.224-1.017,13.69-3.453,19.463-6.76   C479.82,414.806,475.849,411.665,472.371,407.896z" id="svg_8" fill="#ffffff" fill-opacity="1"/>
</g><circle style="" cx="145.64700317382812" cy="215.41900634765625" r="44.138999938964844" id="svg_9" class="" fill="#000000" fill-opacity="1" stroke="none"/><g id="svg_10" class="" fill="#ffffff" fill-opacity="1" stroke="#ffffff" stroke-opacity="1">
	<path style="" d="M147.07757146263123,203.60857146263123 c-7.3100000000000005,0 -13.242,-5.931 -13.242,-13.242 v-17.655 c0,-7.3100000000000005 5.931,-13.242 13.242,-13.242 s13.242,5.931 13.242,13.242 v17.655 C160.31957146263122,197.67757146263122 154.38757146263123,203.60857146263123 147.07757146263123,203.60857146263123 z" id="svg_11" fill="#ffffff" fill-opacity="1" stroke="#ffffff" stroke-opacity="1"/>
	<path style="" d="M147.07757146263123,274.23057146263125 c-7.3100000000000005,0 -13.242,-5.931 -13.242,-13.242 v-17.655 c0,-7.3100000000000005 5.931,-13.242 13.242,-13.242 s13.242,5.931 13.242,13.242 v17.655 C160.31957146263122,268.2995714626312 154.38757146263123,274.23057146263125 147.07757146263123,274.23057146263125 z" id="svg_12" fill="#ffffff" fill-opacity="1" stroke="#ffffff" stroke-opacity="1"/>
	<path style="" d="M120.59457146263122,230.12557146263123 H102.93857146263123 c-7.3100000000000005,0 -13.242,-5.931 -13.242,-13.242 s5.931,-13.242 13.242,-13.242 h17.655 c7.3100000000000005,0 13.242,5.931 13.242,13.242 S127.90457146263122,230.12557146263123 120.59457146263122,230.12557146263123 z" id="svg_13" fill="#ffffff" fill-opacity="1" stroke="#ffffff" stroke-opacity="1"/>
	<path style="" d="M191.21657146263124,230.12557146263123 h-17.655 c-7.3100000000000005,0 -13.242,-5.931 -13.242,-13.242 s5.931,-13.242 13.242,-13.242 h17.655 c7.3100000000000005,0 13.242,5.931 13.242,13.242 S198.52657146263124,230.12557146263123 191.21657146263124,230.12557146263123 z" id="svg_14" fill="#ffffff" fill-opacity="1" stroke="#ffffff" stroke-opacity="1"/>
	<circle style="" cx="367.76856780052185" cy="216.84757781028748" r="57.37999725341797" id="svg_15" fill="#ffffff" fill-opacity="1" stroke="#ffffff" stroke-opacity="1"/>
	<circle style="" cx="314.8025643825531" cy="296.33057951927185" r="30.89699935913086" id="svg_16" fill="#ffffff" fill-opacity="1" stroke="#ffffff" stroke-opacity="1"/>
</g><g id="svg_17" class="" fill="#000000" fill-opacity="1">
	<circle style="" cx="313.3739929199219" cy="294.9020080566406" r="13.241999626159668" id="svg_18" fill="#000000" fill-opacity="1"/>
	<circle style="" cx="366.3399963378906" cy="182.31500244140625" r="16.552000045776367" id="svg_19" fill="#000000" fill-opacity="1"/>
	<circle style="" cx="366.3399963378906" cy="248.5229949951172" r="16.552000045776367" id="svg_20" fill="#000000" fill-opacity="1"/>
	<circle style="" cx="399.4440002441406" cy="215.41900634765625" r="16.552000045776367" id="svg_21" fill="#000000" fill-opacity="1"/>
	<circle style="" cx="333.2359924316406" cy="215.41900634765625" r="16.552000045776367" id="svg_22" fill="#000000" fill-opacity="1"/>
</g><path style="fill:#FAAF50;" d="M255.996,193.352c-9.751,0-17.655,7.904-17.655,17.655l0,0c0,9.75,7.904,17.655,17.655,17.655  s17.655-7.905,17.655-17.655l0,0C273.651,201.257,265.746,193.352,255.996,193.352z" id="svg_23"/><circle style="" cx="198.61300659179688" cy="294.9020080566406" r="30.89699935913086" id="svg_24" class="" fill="#ffffff" fill-opacity="1"/><circle style="" cx="198.61300659179688" cy="294.9020080566406" r="13.241999626159668" id="svg_25" class="" fill="#000000" fill-opacity="1"/><g id="svg_26">
</g><g id="svg_27">
</g><g id="svg_28">
</g><g id="svg_29">
</g><g id="svg_30">
</g><g id="svg_31">
</g><g id="svg_32">
</g><g id="svg_33">
</g><g id="svg_34">
</g><g id="svg_35">
</g><g id="svg_36">
</g><g id="svg_37">
</g><g id="svg_38">
</g><g id="svg_39">
</g><g id="svg_40">
</g></g></svg>